<svg width="28" height="28" viewBox="0 0 28 28" fill="none" xmlns="http://www.w3.org/2000/svg" xmlns:xlink="http://www.w3.org/1999/xlink">
<path d="M26,16L16,16L16,26C16,26.53 15.789,27.039 15.414,27.414C15.039,27.789 14.53,28 14,28C13.47,28 12.961,27.789 12.586,27.414C12.211,27.039 12,26.53 12,26L12,16L2,16C1.47,16 0.961,15.789 0.586,15.414C0.211,15.039 0,14.53 0,14C0,13.47 0.211,12.961 0.586,12.586C0.961,12.211 1.47,12 2,12L12,12L12,2C12,1.47 12.211,0.961 12.586,0.586C12.961,0.211 13.47,0 14,0C14.53,0 15.039,0.211 15.414,0.586C15.789,0.961 16,1.47 16,2L16,12L26,12C26.53,12 27.039,12.211 27.414,12.586C27.789,12.961 28,13.47 28,14C28,14.53 27.789,15.039 27.414,15.414C27.039,15.789 26.53,16 26,16Z" fill="#000000"/>
</svg>
