<svg width="64" height="52" viewBox="0 0 64 52" fill="none" xmlns="http://www.w3.org/2000/svg" xmlns:xlink="http://www.w3.org/1999/xlink">
<path d="M9.333,15.333C9.334,12.805 9.988,10.32 11.232,8.119C12.476,5.918 14.268,4.076 16.434,2.772C18.6,1.468 21.066,0.745 23.593,0.675C26.121,0.605 28.623,1.19 30.858,2.372C33.093,3.554 34.984,5.294 36.348,7.422C37.712,9.551 38.503,11.996 38.644,14.52C38.785,17.045 38.27,19.562 37.151,21.829C36.032,24.096 34.346,26.035 32.256,27.459C36.756,29.109 40.659,32.068 43.463,35.956C46.267,39.843 47.843,44.481 47.989,49.272C47.983,49.788 47.778,50.283 47.416,50.651C47.054,51.02 46.563,51.234 46.047,51.25C45.531,51.265 45.028,51.08 44.645,50.734C44.261,50.388 44.026,49.907 43.989,49.392C43.831,44.196 41.655,39.266 37.923,35.646C34.191,32.027 29.197,30.003 23.999,30.003C18.8,30.003 13.806,32.027 10.074,35.646C6.343,39.266 4.167,44.196 4.008,49.392C3.981,49.914 3.751,50.405 3.367,50.76C2.983,51.114 2.475,51.304 1.952,51.289C1.429,51.274 0.933,51.054 0.571,50.678C0.208,50.301 0.007,49.797 0.011,49.275C0.156,44.483 1.732,39.845 4.536,35.957C7.34,32.069 11.244,29.109 15.744,27.459C13.768,26.114 12.15,24.306 11.033,22.192C9.915,20.079 9.332,17.724 9.333,15.333ZM24,4.667C21.171,4.667 18.458,5.79 16.458,7.791C14.457,9.791 13.333,12.504 13.333,15.333C13.333,18.162 14.457,20.875 16.458,22.876C18.458,24.876 21.171,26 24,26C26.829,26 29.542,24.876 31.542,22.876C33.543,20.875 34.667,18.162 34.667,15.333C34.667,12.504 33.543,9.791 31.542,7.791C29.542,5.79 26.829,4.667 24,4.667ZM46.107,15.333C45.712,15.333 45.328,15.36 44.949,15.413C44.685,15.461 44.414,15.454 44.152,15.394C43.89,15.335 43.643,15.223 43.425,15.066C43.208,14.908 43.024,14.709 42.885,14.479C42.746,14.249 42.655,13.993 42.617,13.727C42.579,13.462 42.595,13.191 42.664,12.931C42.733,12.672 42.853,12.429 43.018,12.217C43.183,12.005 43.389,11.828 43.624,11.697C43.858,11.567 44.117,11.485 44.384,11.456C47.036,11.072 49.741,11.582 52.072,12.904C54.403,14.226 56.228,16.285 57.26,18.758C58.293,21.231 58.473,23.977 57.774,26.564C57.075,29.151 55.535,31.432 53.397,33.048C56.54,34.455 59.208,36.741 61.08,39.631C62.952,42.521 63.947,45.89 63.947,49.333C63.947,49.864 63.736,50.372 63.361,50.747C62.986,51.122 62.477,51.333 61.947,51.333C61.416,51.333 60.908,51.122 60.532,50.747C60.157,50.372 59.947,49.864 59.947,49.333C59.946,46.358 58.988,43.461 57.212,41.073C55.437,38.685 52.94,36.932 50.091,36.075L48.667,35.648L48.667,31.179L49.76,30.621C51.381,29.8 52.677,28.457 53.441,26.809C54.204,25.16 54.39,23.302 53.968,21.535C53.545,19.768 52.54,18.195 51.114,17.07C49.687,15.945 47.923,15.333 46.107,15.333Z" fill="#000000"/>
</svg>
