<svg width="48" height="44" viewBox="0 0 48 44" fill="none" xmlns="http://www.w3.org/2000/svg" xmlns:xlink="http://www.w3.org/1999/xlink">
<path d="M34.05,0C29.874,0 25.866,1.942 23.25,5.011C20.634,1.942 16.626,0 12.45,0C5.058,0 -0.75,5.803 -0.75,13.188C-0.75,22.252 7.41,29.637 19.77,40.859L23.25,44L26.73,40.835C39.09,29.637 47.25,22.252 47.25,13.188C47.25,5.803 41.442,0 34.05,0ZM23.49,37.286L23.25,37.526L23.01,37.286C11.586,26.951 4.05,20.118 4.05,13.188C4.05,8.392 7.65,4.796 12.45,4.796C16.146,4.796 19.746,7.169 21.018,10.454L25.506,10.454C26.754,7.169 30.354,4.796 34.05,4.796C38.85,4.796 42.45,8.392 42.45,13.188C42.45,20.118 34.914,26.951 23.49,37.286Z" fill="#000000"/>
</svg>
