<svg width="38" height="30" viewBox="0 0 38 30" fill="none" xmlns="http://www.w3.org/2000/svg" xmlns:xlink="http://www.w3.org/1999/xlink">
<path d="M2.735,11C1.075,11 -0.265,12.34 -0.265,14C-0.265,15.66 1.075,17 2.735,17C4.395,17 5.735,15.66 5.735,14C5.735,12.34 4.395,11 2.735,11ZM2.735,-1C1.075,-1 -0.265,0.34 -0.265,2C-0.265,3.66 1.075,5 2.735,5C4.395,5 5.735,3.66 5.735,2C5.735,0.34 4.395,-1 2.735,-1ZM2.735,23C1.075,23 -0.265,24.36 -0.265,26C-0.265,27.64 1.095,29 2.735,29C4.375,29 5.735,27.64 5.735,26C5.735,24.36 4.395,23 2.735,23ZM8.735,28L36.735,28L36.735,24L8.735,24L8.735,28ZM8.735,16L36.735,16L36.735,12L8.735,12L8.735,16ZM8.735,0L8.735,4L36.735,4L36.735,0L8.735,0Z" fill="#000000" fill-opacity="0.5"/>
</svg>
