<svg width="44" height="44" viewBox="0 0 44 44" fill="none" xmlns="http://www.w3.org/2000/svg" xmlns:xlink="http://www.w3.org/1999/xlink">
<path d="M22,0.667C24.829,0.667 27.542,1.791 29.543,3.791C31.543,5.791 32.667,8.504 32.667,11.333C32.667,14.162 31.543,16.876 29.543,18.876C27.542,20.876 24.829,22 22,22C19.171,22 16.458,20.876 14.458,18.876C12.457,16.876 11.333,14.162 11.333,11.333C11.333,8.504 12.457,5.791 14.458,3.791C16.458,1.791 19.171,0.667 22,0.667ZM22,27.333C33.787,27.333 43.333,32.107 43.333,38L43.333,43.333L0.667,43.333L0.667,38C0.667,32.107 10.213,27.333 22,27.333Z" fill="#5937E0"/>
</svg>
