<svg width="48" height="48" viewBox="0 0 48 48" fill="none" xmlns="http://www.w3.org/2000/svg" xmlns:xlink="http://www.w3.org/1999/xlink">
<path d="M33.333,29.333L31.227,29.333L30.48,28.613C33.093,25.573 34.667,21.627 34.667,17.333C34.667,7.76 26.907,0 17.333,0C7.76,0 0,7.76 0,17.333C0,26.907 7.76,34.667 17.333,34.667C21.627,34.667 25.573,33.093 28.613,30.48L29.333,31.227L29.333,33.333L42.667,46.64L46.64,42.667L33.333,29.333ZM17.333,29.333C10.693,29.333 5.333,23.973 5.333,17.333C5.333,10.693 10.693,5.333 17.333,5.333C23.973,5.333 29.333,10.693 29.333,17.333C29.333,23.973 23.973,29.333 17.333,29.333Z" fill="#000000"/>
</svg>
