<svg width="48" height="48" viewBox="0 0 48 48" fill="none" xmlns="http://www.w3.org/2000/svg" xmlns:xlink="http://www.w3.org/1999/xlink">
<path d="M19.027,48L18.061,40.288C17.21,40.03 16.29,39.627 15.301,39.077C14.313,38.528 13.47,37.938 12.773,37.307L5.661,40.333L0.688,31.667L6.835,27.032C6.756,26.548 6.692,26.051 6.64,25.539C6.588,25.027 6.564,24.531 6.565,24.051C6.565,23.603 6.59,23.132 6.64,22.637C6.69,22.143 6.755,21.587 6.835,20.968L0.688,16.333L5.661,7.768L12.723,10.747C13.519,10.084 14.381,9.485 15.309,8.952C16.237,8.419 17.138,8.006 18.011,7.715L19.024,0L28.973,0L29.939,7.765C30.961,8.123 31.864,8.534 32.648,9C33.432,9.466 34.24,10.047 35.072,10.744L42.339,7.768L47.312,16.333L40.96,21.123C41.106,21.674 41.188,22.179 41.205,22.637C41.223,23.096 41.232,23.55 41.232,24C41.232,24.414 41.214,24.851 41.179,25.309C41.145,25.77 41.067,26.326 40.944,26.979L47.195,31.667L42.221,40.333L35.072,37.256C34.242,37.953 33.406,38.551 32.565,39.051C31.723,39.55 30.847,39.945 29.939,40.235L28.973,48L19.027,48ZM21.333,45.333L26.549,45.333L27.533,38.112C28.877,37.756 30.086,37.268 31.16,36.648C32.234,36.028 33.329,35.178 34.445,34.099L41.099,36.933L43.749,32.4L37.912,28.016C38.134,27.257 38.282,26.558 38.355,25.92C38.428,25.282 38.463,24.642 38.461,24C38.461,23.324 38.426,22.684 38.355,22.08C38.284,21.476 38.136,20.812 37.912,20.088L43.851,15.6L41.2,11.067L34.395,13.92C33.588,13.033 32.527,12.203 31.213,11.429C29.9,10.656 28.655,10.142 27.48,9.888L26.667,2.667L21.349,2.667L20.517,9.835C19.173,10.123 17.938,10.585 16.811,11.221C15.684,11.858 14.564,12.734 13.451,13.851L6.8,11.067L4.149,15.6L9.933,19.92C9.711,20.517 9.556,21.166 9.467,21.867C9.378,22.567 9.333,23.296 9.333,24.053C9.333,24.729 9.378,25.4 9.467,26.067C9.556,26.733 9.694,27.382 9.883,28.013L4.149,32.4L6.8,36.933L13.4,34.133C14.445,35.189 15.532,36.036 16.659,36.675C17.786,37.313 19.055,37.81 20.467,38.165L21.333,45.333ZM23.928,30.667C25.788,30.667 27.364,30.02 28.656,28.728C29.948,27.436 30.595,25.86 30.595,24C30.595,22.14 29.948,20.564 28.656,19.272C27.364,17.98 25.788,17.333 23.928,17.333C22.058,17.333 20.479,17.98 19.192,19.272C17.905,20.564 17.261,22.14 17.261,24C17.261,25.86 17.905,27.436 19.192,28.728C20.479,30.02 22.058,30.667 23.928,30.667Z" fill="#000000"/>
</svg>
