<svg width="40" height="28" viewBox="0 0 40 28" fill="none" xmlns="http://www.w3.org/2000/svg" xmlns:xlink="http://www.w3.org/1999/xlink">
<path d="M27.461,13.615C30.88,13.615 33.666,10.57 33.666,6.865C33.666,3.202 30.894,0.301 27.461,0.301C24.057,0.301 21.256,3.245 21.256,6.894C21.271,10.585 24.057,13.615 27.461,13.615ZM10.916,13.931C13.874,13.931 16.301,11.274 16.301,8.014C16.301,4.825 13.903,2.255 10.916,2.255C7.957,2.255 5.516,4.869 5.53,8.042C5.544,11.289 7.957,13.931 10.916,13.931ZM27.461,11.447C25.364,11.447 23.569,9.436 23.569,6.894C23.569,4.394 25.336,2.47 27.461,2.47C29.601,2.47 31.354,4.366 31.354,6.865C31.354,9.407 29.587,11.447 27.461,11.447ZM10.916,11.791C9.164,11.791 7.67,10.111 7.67,8.042C7.67,6.017 9.149,4.395 10.916,4.395C12.725,4.395 14.176,5.989 14.176,8.014C14.176,10.111 12.682,11.791 10.916,11.791ZM2.93,27.102L14.205,27.102C13.515,26.714 12.984,25.852 13.084,24.976L2.571,24.976C2.284,24.976 2.141,24.862 2.141,24.588C2.141,21.027 6.205,17.695 10.902,17.695C12.711,17.695 14.334,18.125 15.728,18.944C16.19,18.358 16.737,17.845 17.351,17.422C15.498,16.2 13.272,15.569 10.902,15.569C4.884,15.569 0,19.935 0,24.717C0,26.312 0.976,27.102 2.93,27.102ZM18.441,27.102L36.481,27.102C38.865,27.102 40,26.384 40,24.804C40,21.041 35.246,15.597 27.461,15.597C19.662,15.597 14.909,21.041 14.909,24.804C14.909,26.384 16.043,27.102 18.441,27.102ZM17.752,24.933C17.379,24.933 17.221,24.833 17.221,24.531C17.221,22.175 20.869,17.767 27.461,17.767C34.04,17.767 37.687,22.175 37.687,24.531C37.687,24.832 37.544,24.933 37.17,24.933L17.752,24.933Z" fill="#000000"/>
</svg>
