<svg width="40" height="32" viewBox="0 0 40 32" fill="none" xmlns="http://www.w3.org/2000/svg" xmlns:xlink="http://www.w3.org/1999/xlink">
<path d="M8.586,0.586C8.961,0.211 9.47,0 10,0C10.53,0 11.039,0.211 11.414,0.586L19.414,8.586C19.778,8.963 19.98,9.468 19.975,9.993C19.971,10.517 19.761,11.019 19.39,11.39C19.019,11.76 18.517,11.971 17.993,11.975C17.468,11.98 16.963,11.778 16.586,11.414L12,6.828L12,30C12,30.53 11.789,31.039 11.414,31.414C11.039,31.789 10.531,32 10,32C9.47,32 8.961,31.789 8.586,31.414C8.211,31.039 8,30.53 8,30L8,6.828L3.414,11.414C3.037,11.778 2.532,11.98 2.007,11.975C1.483,11.971 0.981,11.76 0.61,11.39C0.24,11.019 0.029,10.517 0.025,9.993C0.02,9.468 0.222,8.963 0.586,8.586L8.586,0.586ZM28,25.172L28,2C28,1.47 28.211,0.961 28.586,0.586C28.961,0.211 29.47,0 30,0C30.53,0 31.039,0.211 31.414,0.586C31.789,0.961 32,1.47 32,2L32,25.172L36.586,20.586C36.963,20.222 37.468,20.02 37.993,20.025C38.517,20.029 39.019,20.24 39.39,20.61C39.76,20.981 39.971,21.483 39.975,22.007C39.98,22.532 39.778,23.037 39.414,23.414L31.414,31.414C31.039,31.789 30.53,32 30,32C29.47,32 28.961,31.789 28.586,31.414L20.586,23.414C20.222,23.037 20.02,22.532 20.025,22.007C20.029,21.483 20.24,20.981 20.61,20.61C20.981,20.24 21.483,20.029 22.007,20.025C22.532,20.02 23.037,20.222 23.414,20.586L28,25.172Z" fill="#000000"/>
</svg>
